<svg id="svg" version="1.1" xmlns="http://www.w3.org/2000/svg" xmlns:xlink="http://www.w3.org/1999/xlink" width="400" height="400" viewBox="0, 0, 400,400"><g id="svgg"><path id="path0" d="M37.422 31.854 C 28.773 33.956,21.386 41.408,19.337 50.100 C 18.494 53.673,18.466 184.250,19.307 187.410 C 21.186 194.468,25.727 200.198,32.031 203.468 C 37.866 206.494,28.219 206.250,141.895 206.250 L 243.702 206.250 243.823 193.435 L 243.945 180.621 245.404 177.670 C 251.251 165.846,267.499 165.846,273.346 177.670 L 274.805 180.621 274.927 193.435 L 275.048 206.250 286.138 206.250 C 298.743 206.250,299.949 206.086,304.883 203.708 C 311.729 200.408,316.295 194.708,318.336 186.914 C 319.196 183.633,318.879 52.596,318.004 49.537 C 315.730 41.584,309.982 35.364,302.266 32.503 L 299.414 31.445 169.531 31.379 C 60.028 31.323,39.299 31.398,37.422 31.854 M100.781 50.424 C 109.433 52.417,112.954 57.137,116.632 71.672 L 119.005 81.055 169.044 81.250 C 225.445 81.470,219.975 81.149,222.168 84.371 C 223.532 86.375,223.354 87.491,218.722 105.979 C 214.163 124.174,213.750 125.343,210.982 127.843 C 207.085 131.363,208.544 131.250,167.168 131.250 L 131.250 131.250 131.250 132.169 C 131.250 134.432,127.892 137.500,125.416 137.500 C 118.805 137.500,116.438 146.190,122.251 149.121 L 123.994 150.000 169.166 150.000 L 214.338 150.000 215.656 150.888 C 219.812 153.689,219.812 158.811,215.656 161.612 C 214.392 162.463,214.010 162.500,206.388 162.500 C 202.015 162.500,198.438 162.597,198.438 162.715 C 198.438 162.833,198.739 163.492,199.107 164.180 C 199.590 165.081,199.777 166.357,199.775 168.750 C 199.767 182.186,182.019 186.001,176.097 173.840 C 174.973 171.532,174.858 166.110,175.893 164.180 C 176.261 163.492,176.563 162.833,176.563 162.715 C 176.563 162.597,170.236 162.500,162.503 162.500 L 148.444 162.500 149.124 164.160 C 153.970 175.983,139.225 186.367,129.257 178.152 C 125.670 175.195,124.058 168.592,125.854 164.214 L 126.513 162.608 123.510 162.397 C 105.471 161.131,99.868 137.329,115.332 127.656 C 116.353 127.018,117.188 126.421,117.188 126.330 C 117.188 125.270,102.118 66.288,101.628 65.430 C 100.298 63.100,98.239 62.500,91.577 62.500 C 84.962 62.500,84.014 62.189,82.138 59.406 C 80.304 56.684,81.268 52.961,84.344 50.888 C 85.828 49.888,97.075 49.570,100.781 50.424 " stroke="none" fill="#f96164" fill-rule="evenodd"></path><path id="path1" d="M84.751 50.879 C 80.272 53.137,80.272 59.363,84.751 61.621 C 86.329 62.417,87.051 62.500,92.408 62.500 C 98.867 62.500,99.813 62.784,101.658 65.275 C 102.147 65.936,105.047 76.834,109.941 96.405 L 117.471 126.517 115.214 127.911 C 99.931 137.344,105.619 160.502,123.674 162.352 L 126.169 162.608 128.297 160.393 C 133.632 154.841,142.172 154.925,146.938 160.576 L 148.560 162.500 162.416 162.500 L 176.273 162.500 178.349 160.339 C 183.590 154.885,191.359 154.885,196.684 160.339 L 198.794 162.500 206.150 162.500 C 213.002 162.500,213.626 162.440,215.249 161.621 C 219.728 159.363,219.728 153.137,215.249 150.879 L 213.506 150.000 168.334 150.000 L 123.162 150.000 121.844 149.112 C 116.726 145.663,118.634 137.528,124.569 137.491 C 127.695 137.472,130.423 135.299,131.081 132.303 C 131.436 130.686,114.797 64.044,113.165 60.547 C 110.830 55.544,105.433 51.447,99.831 50.423 C 95.377 49.610,86.750 49.871,84.751 50.879 " stroke="none" fill="#e4f1fb" fill-rule="evenodd"></path><path id="path2" d="M3.375 3.460 C 0.805 6.042,-0.035 7.136,0.063 7.769 C 0.175 8.487,0.857 7.953,4.486 4.309 C 8.185 0.593,8.641 0.000,7.798 0.000 C 7.087 0.000,5.879 0.945,3.375 3.460 M7.285 7.363 C 1.572 13.082,-0.040 14.915,0.063 15.575 C 0.172 16.276,1.625 14.993,8.395 8.212 C 15.220 1.377,16.431 0.000,15.618 0.000 C 14.870 0.000,12.913 1.729,7.285 7.363 M11.193 11.268 C 2.341 20.124,-0.042 22.718,0.063 23.385 C 0.171 24.080,2.393 22.035,12.302 12.117 C 22.252 2.159,24.235 0.000,23.433 0.000 C 22.674 0.000,19.945 2.512,11.193 11.268 M15.100 15.174 C 3.109 27.167,-0.042 30.525,0.063 31.197 C 0.171 31.889,3.162 29.077,16.209 16.023 C 29.284 2.941,32.044 -0.000,31.246 -0.000 C 30.482 -0.000,26.977 3.293,15.100 15.174 M19.006 19.080 C 3.879 34.210,-0.043 38.335,0.062 39.008 C 0.170 39.698,3.932 36.120,20.116 19.929 C 36.315 3.722,39.854 -0.000,39.060 -0.000 C 38.292 -0.000,34.009 4.075,19.006 19.080 M22.913 22.986 C 4.648 41.253,-0.043 46.146,0.062 46.821 C 0.170 47.509,4.701 43.163,24.022 23.835 C 43.347 4.504,47.665 0.000,46.873 0.000 C 46.102 0.000,41.040 4.856,22.913 22.986 M26.819 26.892 C 5.417 48.296,-0.043 53.957,0.062 54.633 C 0.170 55.320,5.470 50.206,27.929 27.741 C 50.378 5.285,55.476 0.000,54.685 0.000 C 53.914 0.000,48.071 5.638,26.819 26.892 M30.726 30.798 C 6.186 55.339,-0.043 61.768,0.062 62.445 C 0.170 63.132,6.239 57.249,31.835 31.647 C 57.410 6.067,63.288 0.000,62.498 0.000 C 61.725 0.000,55.103 6.419,30.726 30.798 M53.516 15.820 C 40.704 28.635,37.882 31.641,38.664 31.641 C 39.413 31.641,43.161 28.110,55.459 15.822 C 68.407 2.883,71.111 0.002,70.311 0.001 C 69.542 0.000,65.938 3.396,53.516 15.820 M61.523 15.625 C 48.765 28.386,46.081 31.250,46.879 31.250 C 47.644 31.250,51.239 27.866,63.477 15.625 C 76.235 2.864,78.919 0.000,78.121 0.000 C 77.356 0.000,73.761 3.384,61.523 15.625 M69.336 15.625 C 56.578 28.386,53.894 31.250,54.691 31.250 C 55.456 31.250,59.051 27.866,71.289 15.625 C 84.047 2.864,86.731 0.000,85.934 0.000 C 85.169 0.000,81.574 3.384,69.336 15.625 M77.148 15.625 C 64.390 28.386,61.706 31.250,62.504 31.250 C 63.269 31.250,66.864 27.866,79.102 15.625 C 91.860 2.864,94.544 0.000,93.746 0.000 C 92.981 0.000,89.386 3.384,77.148 15.625 M84.961 15.625 C 72.203 28.386,69.519 31.250,70.316 31.250 C 71.081 31.250,74.676 27.866,86.914 15.625 C 99.672 2.864,102.356 0.000,101.559 0.000 C 100.794 0.000,97.199 3.384,84.961 15.625 M92.773 15.625 C 80.015 28.386,77.331 31.250,78.129 31.250 C 78.894 31.250,82.489 27.866,94.727 15.625 C 107.485 2.864,110.169 0.000,109.371 0.000 C 108.606 0.000,105.011 3.384,92.773 15.625 M100.586 15.625 C 87.828 28.386,85.144 31.250,85.941 31.250 C 86.706 31.250,90.301 27.866,102.539 15.625 C 115.297 2.864,117.981 0.000,117.184 0.000 C 116.419 0.000,112.824 3.384,100.586 15.625 M108.398 15.625 C 95.640 28.386,92.956 31.250,93.754 31.250 C 94.519 31.250,98.114 27.866,110.352 15.625 C 123.110 2.864,125.794 0.000,124.996 0.000 C 124.231 0.000,120.636 3.384,108.398 15.625 M116.211 15.625 C 103.453 28.386,100.769 31.250,101.566 31.250 C 102.331 31.250,105.926 27.866,118.164 15.625 C 130.922 2.864,133.606 0.000,132.809 0.000 C 132.044 0.000,128.449 3.384,116.211 15.625 M124.023 15.625 C 111.265 28.386,108.581 31.250,109.379 31.250 C 110.144 31.250,113.739 27.866,125.977 15.625 C 138.735 2.864,141.419 0.000,140.621 0.000 C 139.856 0.000,136.261 3.384,124.023 15.625 M131.836 15.625 C 119.078 28.386,116.394 31.250,117.191 31.250 C 117.956 31.250,121.551 27.866,133.789 15.625 C 146.547 2.864,149.231 0.000,148.434 0.000 C 147.669 0.000,144.074 3.384,131.836 15.625 M139.648 15.625 C 126.890 28.386,124.206 31.250,125.004 31.250 C 125.769 31.250,129.364 27.866,141.602 15.625 C 154.360 2.864,157.044 0.000,156.246 0.000 C 155.481 0.000,151.886 3.384,139.648 15.625 M147.461 15.625 C 134.703 28.386,132.019 31.250,132.816 31.250 C 133.581 31.250,137.176 27.866,149.414 15.625 C 162.172 2.864,164.856 0.000,164.059 0.000 C 163.294 0.000,159.699 3.384,147.461 15.625 M155.273 15.625 C 142.515 28.386,139.831 31.250,140.629 31.250 C 141.394 31.250,144.989 27.866,157.227 15.625 C 169.985 2.864,172.669 0.000,171.871 0.000 C 171.106 0.000,167.511 3.384,155.273 15.625 M163.086 15.625 C 150.328 28.386,147.644 31.250,148.441 31.250 C 149.206 31.250,152.801 27.866,165.039 15.625 C 177.797 2.864,180.481 0.000,179.684 0.000 C 178.919 0.000,175.324 3.384,163.086 15.625 M170.898 15.625 C 158.140 28.386,155.456 31.250,156.254 31.250 C 157.019 31.250,160.614 27.866,172.852 15.625 C 185.610 2.864,188.294 0.000,187.496 0.000 C 186.731 0.000,183.136 3.384,170.898 15.625 M178.711 15.625 C 165.953 28.386,163.269 31.250,164.066 31.250 C 164.831 31.250,168.426 27.866,180.664 15.625 C 193.422 2.864,196.106 0.000,195.309 0.000 C 194.544 0.000,190.949 3.384,178.711 15.625 M186.523 15.625 C 173.765 28.386,171.081 31.250,171.879 31.250 C 172.644 31.250,176.239 27.866,188.477 15.625 C 201.235 2.864,203.919 0.000,203.121 0.000 C 202.356 0.000,198.761 3.384,186.523 15.625 M194.336 15.625 C 181.578 28.386,178.894 31.250,179.691 31.250 C 180.456 31.250,184.051 27.866,196.289 15.625 C 209.047 2.864,211.731 0.000,210.934 0.000 C 210.169 0.000,206.574 3.384,194.336 15.625 M202.148 15.625 C 189.390 28.386,186.706 31.250,187.504 31.250 C 188.269 31.250,191.864 27.866,204.102 15.625 C 216.860 2.864,219.544 0.000,218.746 0.000 C 217.981 0.000,214.386 3.384,202.148 15.625 M209.961 15.625 C 197.203 28.386,194.519 31.250,195.316 31.250 C 196.081 31.250,199.676 27.866,211.914 15.625 C 224.672 2.864,227.356 0.000,226.559 0.000 C 225.794 0.000,222.199 3.384,209.961 15.625 M217.773 15.625 C 205.015 28.386,202.331 31.250,203.129 31.250 C 203.894 31.250,207.489 27.866,219.727 15.625 C 232.485 2.864,235.169 0.000,234.371 0.000 C 233.606 0.000,230.011 3.384,217.773 15.625 M225.586 15.625 C 212.828 28.386,210.144 31.250,210.941 31.250 C 211.706 31.250,215.301 27.866,227.539 15.625 C 240.297 2.864,242.981 0.000,242.184 0.000 C 241.419 0.000,237.824 3.384,225.586 15.625 M233.398 15.625 C 220.640 28.386,217.956 31.250,218.754 31.250 C 219.519 31.250,223.114 27.866,235.352 15.625 C 248.110 2.864,250.794 0.000,249.996 0.000 C 249.231 0.000,245.636 3.384,233.398 15.625 M241.211 15.625 C 228.453 28.386,225.769 31.250,226.566 31.250 C 227.331 31.250,230.926 27.866,243.164 15.625 C 255.922 2.864,258.606 0.000,257.809 0.000 C 257.044 0.000,253.449 3.384,241.211 15.625 M249.023 15.625 C 236.265 28.386,233.581 31.250,234.379 31.250 C 235.144 31.250,238.739 27.866,250.977 15.625 C 263.735 2.864,266.419 0.000,265.621 0.000 C 264.856 0.000,261.261 3.384,249.023 15.625 M256.836 15.625 C 244.078 28.386,241.394 31.250,242.191 31.250 C 242.956 31.250,246.551 27.866,258.789 15.625 C 271.547 2.864,274.231 0.000,273.434 0.000 C 272.669 0.000,269.074 3.384,256.836 15.625 M264.648 15.625 C 251.890 28.386,249.206 31.250,250.004 31.250 C 250.769 31.250,254.364 27.866,266.602 15.625 C 279.360 2.864,282.044 0.000,281.246 0.000 C 280.481 0.000,276.886 3.384,264.648 15.625 M272.461 15.625 C 259.703 28.386,257.019 31.250,257.816 31.250 C 258.581 31.250,262.176 27.866,274.414 15.625 C 287.172 2.864,289.856 0.000,289.059 0.000 C 288.294 0.000,284.699 3.384,272.461 15.625 M280.273 15.625 C 267.515 28.386,264.831 31.250,265.629 31.250 C 266.394 31.250,269.989 27.866,282.227 15.625 C 294.985 2.864,297.669 0.000,296.871 0.000 C 296.106 0.000,292.511 3.384,280.273 15.625 M288.086 15.625 C 275.328 28.386,272.644 31.250,273.441 31.250 C 274.206 31.250,277.801 27.866,290.039 15.625 C 302.797 2.864,305.481 0.000,304.684 0.000 C 303.919 0.000,300.324 3.384,288.086 15.625 M295.898 15.625 C 283.140 28.386,280.456 31.250,281.254 31.250 C 282.019 31.250,285.614 27.866,297.852 15.625 C 310.610 2.864,313.294 0.000,312.496 0.000 C 311.731 0.000,308.136 3.384,295.898 15.625 M303.711 15.625 C 290.953 28.386,288.269 31.250,289.066 31.250 C 289.831 31.250,293.426 27.866,305.664 15.625 C 318.422 2.864,321.106 0.000,320.309 0.000 C 319.544 0.000,315.949 3.384,303.711 15.625 M311.523 15.625 C 298.765 28.386,296.081 31.250,296.879 31.250 C 297.644 31.250,301.239 27.866,313.477 15.625 C 326.235 2.864,328.919 0.000,328.121 0.000 C 327.356 0.000,323.761 3.384,311.523 15.625 M318.611 16.350 C 305.380 29.583,302.411 32.739,303.038 32.903 C 303.650 33.063,307.274 29.643,320.361 16.553 C 333.862 3.049,336.731 0.000,335.934 0.000 C 335.168 0.000,331.429 3.529,318.611 16.350 M325.291 17.482 C 315.678 27.097,307.813 35.076,307.813 35.214 C 307.813 36.649,310.800 33.929,326.793 17.933 C 341.399 3.325,344.542 0.000,343.747 0.000 C 342.980 0.000,339.015 3.756,325.291 17.482 M331.259 19.327 C 315.821 34.768,312.033 38.752,312.422 39.141 C 312.812 39.530,316.894 35.644,332.724 19.814 C 348.846 3.692,352.356 0.000,351.561 0.000 C 350.791 0.000,346.469 4.114,331.259 19.327 M336.824 21.582 C 319.836 38.578,315.332 43.289,315.625 43.750 C 315.921 44.215,320.592 39.744,338.175 22.168 C 356.185 4.165,360.167 0.000,359.373 0.000 C 358.602 0.000,353.834 4.564,336.824 21.582 M341.931 24.316 C 323.135 43.143,317.712 48.786,317.913 49.313 C 318.116 49.847,323.574 44.592,343.167 24.997 C 363.424 4.738,367.977 0.000,367.185 0.000 C 366.414 0.000,361.104 5.113,341.931 24.316 M346.350 27.673 C 324.321 49.704,318.707 55.519,318.812 56.195 C 318.920 56.883,324.374 51.614,347.460 28.522 C 370.534 5.442,375.788 -0.000,374.998 -0.000 C 374.226 -0.000,368.228 5.794,346.350 27.673 M350.257 31.579 C 325.090 56.747,318.707 63.331,318.812 64.007 C 318.920 64.694,325.143 58.657,351.366 32.428 C 377.566 6.223,383.600 0.000,382.811 0.000 C 382.037 0.000,375.259 6.575,350.257 31.579 M354.163 35.485 C 325.859 63.790,318.706 71.142,318.812 71.820 C 318.920 72.506,325.913 65.700,355.273 36.334 C 384.597 7.004,391.412 -0.000,390.623 -0.000 C 389.849 -0.000,382.290 7.357,354.163 35.485 M358.069 39.391 C 326.629 70.833,318.706 78.954,318.812 79.632 C 318.920 80.318,326.682 72.743,359.179 40.241 C 391.628 7.786,399.224 0.000,398.436 0.000 C 397.661 0.000,389.322 8.138,358.069 39.391 M359.242 46.026 C 326.861 78.413,318.706 86.767,318.812 87.445 C 318.920 88.130,326.746 80.491,359.508 47.724 C 391.889 15.337,400.044 6.983,399.938 6.305 C 399.830 5.620,392.004 13.259,359.242 46.026 M359.242 53.838 C 326.861 86.225,318.706 94.579,318.812 95.257 C 318.920 95.943,326.746 88.304,359.508 55.537 C 391.889 23.150,400.044 14.796,399.938 14.118 C 399.830 13.432,392.004 21.071,359.242 53.838 M359.242 61.651 C 326.861 94.038,318.706 102.392,318.812 103.070 C 318.920 103.755,326.746 96.116,359.508 63.349 C 391.889 30.962,400.044 22.608,399.938 21.930 C 399.830 21.245,392.004 28.884,359.242 61.651 M359.242 69.463 C 326.861 101.850,318.706 110.204,318.812 110.882 C 318.920 111.568,326.746 103.929,359.508 71.162 C 391.889 38.775,400.044 30.421,399.938 29.743 C 399.830 29.057,392.004 36.696,359.242 69.463 M359.242 77.276 C 326.861 109.663,318.706 118.017,318.812 118.695 C 318.920 119.380,326.746 111.741,359.508 78.974 C 391.889 46.587,400.044 38.233,399.938 37.555 C 399.830 36.870,392.004 44.509,359.242 77.276 M359.242 85.088 C 326.861 117.475,318.706 125.829,318.812 126.507 C 318.920 127.193,326.746 119.554,359.508 86.787 C 391.889 54.400,400.044 46.046,399.938 45.368 C 399.830 44.682,392.004 52.321,359.242 85.088 M9.455 59.881 C 2.184 67.156,0.000 69.566,0.000 70.312 C -0.000 71.473,18.607 53.193,19.004 51.642 C 19.434 49.967,18.915 50.415,9.455 59.881 M359.242 92.901 C 326.861 125.288,318.706 133.642,318.812 134.320 C 318.920 135.005,326.746 127.366,359.508 94.599 C 391.889 62.212,400.044 53.858,399.938 53.180 C 399.830 52.495,392.004 60.134,359.242 92.901 M9.242 67.901 C 1.957 75.195,-0.041 77.409,0.063 78.074 C 0.172 78.773,1.842 77.275,9.508 69.599 C 16.793 62.305,18.791 60.091,18.687 59.426 C 18.578 58.727,16.908 60.225,9.242 67.901 M359.242 100.713 C 326.861 133.100,318.706 141.454,318.812 142.132 C 318.920 142.818,326.746 135.179,359.508 102.412 C 391.889 70.025,400.044 61.671,399.938 60.993 C 399.830 60.307,392.004 67.946,359.242 100.713 M9.242 75.713 C 1.957 83.008,-0.041 85.222,0.063 85.886 C 0.172 86.586,1.842 85.087,9.508 77.412 C 16.793 70.117,18.791 67.903,18.687 67.239 C 18.578 66.539,16.908 68.038,9.242 75.713 M359.242 108.526 C 326.861 140.913,318.706 149.267,318.812 149.945 C 318.920 150.630,326.746 142.991,359.508 110.224 C 391.889 77.837,400.044 69.483,399.938 68.805 C 399.830 68.120,392.004 75.759,359.242 108.526 M9.242 83.526 C 1.957 90.820,-0.041 93.034,0.063 93.699 C 0.172 94.398,1.842 92.900,9.508 85.224 C 16.793 77.930,18.791 75.716,18.687 75.051 C 18.578 74.352,16.908 75.850,9.242 83.526 M359.242 116.338 C 326.861 148.725,318.706 157.079,318.812 157.757 C 318.920 158.443,326.746 150.804,359.508 118.037 C 391.889 85.650,400.044 77.296,399.938 76.618 C 399.830 75.932,392.004 83.571,359.242 116.338 M9.242 91.338 C 1.957 98.633,-0.041 100.847,0.063 101.511 C 0.172 102.211,1.842 100.712,9.508 93.037 C 16.793 85.742,18.791 83.528,18.687 82.864 C 18.578 82.164,16.908 83.663,9.242 91.338 M359.242 124.151 C 326.861 156.538,318.706 164.892,318.812 165.570 C 318.920 166.255,326.746 158.616,359.508 125.849 C 391.889 93.462,400.044 85.108,399.938 84.430 C 399.830 83.745,392.004 91.384,359.242 124.151 M9.242 99.151 C 1.957 106.445,-0.041 108.659,0.063 109.324 C 0.172 110.023,1.842 108.525,9.508 100.849 C 16.793 93.555,18.791 91.341,18.687 90.676 C 18.578 89.977,16.908 91.475,9.242 99.151 M359.242 131.963 C 326.861 164.350,318.706 172.704,318.812 173.382 C 318.920 174.068,326.746 166.429,359.508 133.662 C 391.889 101.275,400.044 92.921,399.938 92.243 C 399.830 91.557,392.004 99.196,359.242 131.963 M9.242 106.963 C 1.957 114.258,-0.041 116.472,0.063 117.136 C 0.172 117.836,1.842 116.337,9.508 108.662 C 16.793 101.367,18.791 99.153,18.687 98.489 C 18.578 97.789,16.908 99.288,9.242 106.963 M359.242 139.776 C 326.861 172.163,318.706 180.517,318.812 181.195 C 318.920 181.880,326.746 174.241,359.508 141.474 C 391.889 109.087,400.044 100.733,399.938 100.055 C 399.830 99.370,392.004 107.009,359.242 139.776 M9.242 114.776 C 1.957 122.070,-0.041 124.284,0.063 124.949 C 0.172 125.648,1.842 124.150,9.508 116.474 C 16.793 109.180,18.791 106.966,18.687 106.301 C 18.578 105.602,16.908 107.100,9.242 114.776 M358.721 148.138 C 327.485 179.401,317.486 189.632,317.008 190.820 C 316.511 192.056,325.145 183.620,358.225 150.550 C 391.651 117.135,400.044 108.547,399.938 107.868 C 399.830 107.182,391.906 114.925,358.721 148.138 M9.242 122.588 C 1.957 129.883,-0.041 132.097,0.063 132.761 C 0.172 133.461,1.842 131.962,9.508 124.287 C 16.793 116.992,18.791 114.778,18.687 114.114 C 18.578 113.414,16.908 114.913,9.242 122.588 M337.367 177.276 C 284.600 230.049,274.950 239.866,275.062 240.661 C 275.176 241.468,275.467 241.193,277.114 238.719 C 278.492 236.649,279.698 235.383,281.393 234.227 C 285.265 231.586,400.104 116.747,399.938 115.682 C 399.830 114.996,387.749 126.889,337.367 177.276 M9.242 130.401 C 1.957 137.695,-0.041 139.909,0.063 140.574 C 0.172 141.273,1.842 139.775,9.508 132.099 C 16.793 124.805,18.791 122.591,18.687 121.926 C 18.578 121.227,16.908 122.725,9.242 130.401 M345.508 176.947 C 301.809 220.652,291.403 231.250,292.189 231.250 C 293.629 231.250,400.133 124.739,399.938 123.493 C 399.830 122.808,389.298 133.152,345.508 176.947 M9.242 138.213 C 1.957 145.508,-0.041 147.722,0.063 148.386 C 0.172 149.086,1.842 147.587,9.508 139.912 C 16.793 132.617,18.791 130.403,18.687 129.739 C 18.578 129.039,16.908 130.538,9.242 138.213 M348.691 181.577 C 307.703 222.570,297.716 232.752,298.282 232.969 C 299.323 233.369,400.133 132.552,399.938 131.306 C 399.830 130.621,389.936 140.327,348.691 181.577 M9.242 146.026 C 1.957 153.320,-0.041 155.534,0.063 156.199 C 0.172 156.898,1.842 155.400,9.508 147.724 C 16.793 140.430,18.791 138.216,18.687 137.551 C 18.578 136.852,16.908 138.350,9.242 146.026 M350.987 187.094 C 311.953 226.133,302.266 236.016,302.656 236.406 C 303.377 237.127,400.133 140.365,399.938 139.118 C 399.830 138.433,390.388 147.687,350.987 187.094 M9.242 153.838 C 1.957 161.133,-0.041 163.347,0.063 164.011 C 0.172 164.711,1.842 163.212,9.508 155.537 C 16.793 148.242,18.791 146.028,18.687 145.364 C 18.578 144.664,16.908 146.163,9.242 153.838 M352.450 193.451 C 314.607 231.306,305.174 240.938,305.487 241.406 C 305.933 242.074,306.224 241.777,309.154 237.657 C 310.283 236.069,311.741 234.677,313.529 233.479 C 317.607 230.746,400.120 148.099,399.938 146.931 C 399.830 146.245,390.662 155.227,352.450 193.451 M9.242 161.651 C 1.957 168.945,-0.041 171.159,0.063 171.824 C 0.172 172.523,1.842 171.025,9.508 163.349 C 16.793 156.055,18.791 153.841,18.687 153.176 C 18.578 152.477,16.908 153.975,9.242 161.651 M361.134 192.572 C 329.934 223.777,322.651 231.250,323.439 231.250 C 324.878 231.250,400.132 155.987,399.938 154.743 C 399.830 154.057,392.376 161.324,361.134 192.572 M134.546 156.592 C 120.370 160.275,122.876 181.001,137.500 181.019 C 150.442 181.035,154.790 163.936,143.389 157.860 C 140.856 156.510,136.994 155.956,134.546 156.592 M184.546 156.592 C 170.397 160.268,172.912 181.069,187.500 181.032 C 198.419 181.004,203.859 168.760,196.721 160.277 C 194.333 157.439,188.307 155.615,184.546 156.592 M9.242 169.463 C 1.957 176.758,-0.041 178.972,0.063 179.636 C 0.172 180.336,1.842 178.837,9.508 171.162 C 16.793 163.867,18.791 161.653,18.687 160.989 C 18.578 160.289,16.908 161.788,9.242 169.463 M364.316 197.202 C 335.828 225.695,328.966 232.752,329.532 232.969 C 330.572 233.368,400.132 163.801,399.938 162.556 C 399.830 161.869,393.013 168.499,364.316 197.202 M9.242 177.276 C 1.957 184.570,-0.041 186.784,0.063 187.449 C 0.172 188.148,1.842 186.650,9.508 178.974 C 16.793 171.680,18.791 169.466,18.687 168.801 C 18.578 168.102,16.908 169.600,9.242 177.276 M366.612 202.719 C 340.078 229.258,333.517 236.017,333.907 236.407 C 334.627 237.127,400.133 171.614,399.938 170.368 C 399.830 169.681,393.465 175.859,366.612 202.719 M9.242 185.088 C 1.957 192.383,-0.041 194.597,0.063 195.261 C 0.172 195.961,1.842 194.462,9.508 186.787 C 16.793 179.492,18.791 177.278,18.687 176.614 C 18.578 175.914,16.908 177.413,9.242 185.088 M368.075 209.076 C 342.738 234.424,336.424 240.938,336.737 241.406 C 337.183 242.074,337.474 241.777,340.404 237.657 C 341.533 236.069,342.991 234.677,344.779 233.479 C 348.828 230.766,400.120 179.343,399.938 178.180 C 399.830 177.493,393.739 183.400,368.075 209.076 M9.242 192.901 C 1.957 200.195,-0.041 202.409,0.063 203.074 C 0.172 203.773,1.842 202.275,9.508 194.599 C 16.793 187.305,18.791 185.091,18.687 184.426 C 18.578 183.727,16.908 185.225,9.242 192.901 M376.759 208.196 C 358.060 226.902,353.898 231.250,354.690 231.250 C 356.126 231.250,400.132 187.234,399.938 185.992 C 399.830 185.303,395.453 189.496,376.759 208.196 M10.019 199.942 C 2.109 207.856,-0.041 210.220,0.063 210.886 C 0.172 211.583,2.027 209.895,10.411 201.473 C 18.255 193.593,20.566 191.053,20.367 190.529 C 20.162 189.989,18.004 191.953,10.019 199.942 M379.941 212.827 C 363.954 228.820,360.215 232.751,360.782 232.969 C 361.820 233.367,400.132 195.048,399.938 193.805 C 399.830 193.114,396.090 196.671,379.941 212.827 M11.229 206.545 C 2.538 215.239,-0.000 217.998,-0.000 218.750 C -0.000 219.546,2.114 217.609,11.719 208.007 C 18.165 201.564,23.384 196.127,23.316 195.925 C 22.988 194.940,21.678 196.090,11.229 206.545 M12.986 212.600 C 2.889 222.700,0.000 225.807,0.000 226.563 C 0.000 227.357,2.502 225.034,13.659 213.880 C 26.156 201.387,27.670 199.661,26.170 199.615 C 26.061 199.612,20.128 205.455,12.986 212.600 M382.237 218.343 C 368.204 232.383,364.768 236.018,365.157 236.407 C 365.876 237.126,400.132 202.861,399.938 201.617 C 399.829 200.925,396.543 204.031,382.237 218.343 M15.295 218.104 C 3.351 230.050,-0.000 233.615,-0.000 234.375 C -0.000 235.167,2.934 232.414,15.820 219.531 C 24.521 210.832,31.641 203.601,31.641 203.462 C 31.641 202.038,28.918 204.477,15.295 218.104 M302.930 204.678 C 300.540 205.774,274.885 231.626,275.063 232.760 C 275.171 233.452,277.933 230.870,290.037 218.757 C 298.200 210.589,304.792 203.919,304.686 203.934 C 304.579 203.949,303.789 204.284,302.930 204.678 M17.981 223.230 C 3.677 237.537,-0.043 241.461,0.063 242.134 C 0.170 242.824,3.690 239.487,18.888 224.282 C 33.996 209.167,37.432 205.542,36.806 205.378 C 36.193 205.218,32.270 208.938,17.981 223.230 M21.350 227.673 C 4.340 244.685,-0.043 249.271,0.062 249.946 C 0.170 250.635,4.393 246.596,22.460 228.522 C 40.534 210.441,44.540 206.250,43.747 206.250 C 42.978 206.250,38.228 210.794,21.350 227.673 M25.257 231.579 C 5.109 251.728,-0.043 257.082,0.062 257.758 C 0.170 258.446,5.162 253.638,26.366 232.429 C 47.566 211.223,52.351 206.250,51.560 206.250 C 50.789 206.250,45.259 211.575,25.257 231.579 M29.163 235.485 C 5.879 258.771,-0.043 264.894,0.062 265.570 C 0.170 266.257,5.932 260.681,30.272 236.335 C 54.597 212.004,60.163 206.250,59.373 206.250 C 58.600 206.250,52.290 212.357,29.163 235.485 M33.069 239.392 C 6.648 265.814,-0.044 272.705,0.062 273.382 C 0.170 274.069,6.701 267.724,34.179 240.241 C 61.628 212.785,67.975 206.250,67.186 206.250 C 66.412 206.250,59.322 213.138,33.069 239.392 M36.976 243.298 C 7.417 272.857,-0.044 280.517,0.062 281.195 C 0.170 281.881,7.470 274.767,38.085 244.147 C 68.660 213.567,75.787 206.250,74.998 206.250 C 74.224 206.250,66.353 213.919,36.976 243.298 M40.882 247.204 C 8.187 279.901,-0.044 288.329,0.062 289.007 C 0.170 289.693,8.240 281.811,41.992 248.053 C 75.691 214.348,83.599 206.250,82.811 206.250 C 82.036 206.250,73.384 214.701,40.882 247.204 M44.788 251.110 C 8.956 286.944,-0.044 296.141,0.062 296.819 C 0.170 297.505,9.009 288.854,45.898 251.959 C 82.722 215.129,91.411 206.250,90.624 206.250 C 89.848 206.250,80.416 215.482,44.788 251.110 M48.695 255.016 C 9.725 293.987,-0.044 303.953,0.062 304.632 C 0.170 305.317,9.778 295.897,49.804 255.866 C 89.754 215.911,99.223 206.250,98.436 206.250 C 97.660 206.250,87.447 216.263,48.695 255.016 M52.601 258.923 C 10.495 301.030,-0.044 311.765,0.062 312.444 C 0.170 313.129,10.548 302.940,53.710 259.772 C 96.785 216.692,107.035 206.250,106.249 206.250 C 105.472 206.250,94.478 217.044,52.601 258.923 M56.507 262.829 C 11.264 308.073,-0.044 319.578,0.062 320.257 C 0.170 320.941,11.317 309.983,57.617 263.678 C 103.816 217.473,114.847 206.250,114.061 206.250 C 113.285 206.250,101.509 217.826,56.507 262.829 M60.413 266.735 C 12.033 315.116,-0.044 327.390,0.062 328.069 C 0.170 328.754,12.087 317.026,61.523 267.584 C 110.847 218.254,122.659 206.250,121.874 206.250 C 121.097 206.250,108.541 218.607,60.413 266.735 M64.320 270.641 C 12.803 322.159,-0.044 335.202,0.062 335.882 C 0.170 336.566,12.856 324.069,65.429 271.490 C 117.879 219.036,130.472 206.250,129.687 206.250 C 128.909 206.250,115.572 219.388,64.320 270.641 M68.226 274.547 C 13.572 329.202,-0.044 343.014,0.062 343.694 C 0.169 344.378,13.625 331.112,69.336 275.397 C 124.910 219.817,138.284 206.250,137.499 206.250 C 136.722 206.250,122.603 220.170,68.226 274.547 M72.132 278.454 C 14.341 336.245,-0.044 350.827,0.062 351.507 C 0.169 352.191,14.395 338.155,73.242 279.303 C 131.941 220.598,146.096 206.250,145.312 206.250 C 144.534 206.250,129.635 220.951,72.132 278.454 M76.039 282.360 C 15.111 343.288,-0.044 358.639,0.062 359.319 C 0.169 360.003,15.164 345.198,77.148 283.209 C 138.973 221.380,153.909 206.250,153.124 206.250 C 152.346 206.250,136.666 221.732,76.039 282.360 M79.945 286.266 C 15.880 350.331,-0.044 366.452,0.062 367.131 C 0.169 367.815,15.933 352.241,81.054 287.115 C 146.004 222.161,161.721 206.250,160.937 206.250 C 160.159 206.250,143.697 222.513,79.945 286.266 M83.851 290.172 C 16.649 357.375,-0.044 374.264,0.062 374.944 C 0.169 375.628,16.703 359.284,84.961 291.022 C 153.035 222.942,169.534 206.250,168.749 206.250 C 167.971 206.250,150.728 223.295,83.851 290.172 M87.757 294.079 C 17.419 364.418,-0.044 382.076,0.062 382.756 C 0.169 383.440,17.472 366.328,88.867 294.928 C 160.066 223.723,177.346 206.250,176.562 206.250 C 175.783 206.250,157.760 224.076,87.757 294.079 M91.664 297.985 C 18.188 371.461,-0.044 389.889,0.062 390.569 C 0.169 391.253,18.242 373.371,92.773 298.834 C 167.098 224.505,185.158 206.250,184.374 206.250 C 183.596 206.250,164.791 224.857,91.664 297.985 M95.570 301.891 C 18.958 378.504,-0.044 397.701,0.062 398.381 C 0.169 399.065,19.011 380.414,96.679 302.740 C 174.129 225.286,192.971 206.250,192.187 206.250 C 191.408 206.250,171.822 225.638,95.570 301.891 M102.148 303.125 C 24.388 380.886,5.467 400.000,6.251 400.000 C 7.029 400.000,26.862 380.365,104.102 303.125 C 181.862 225.364,200.783 206.250,199.999 206.250 C 199.221 206.250,179.388 225.885,102.148 303.125 M109.961 303.125 C 32.201 380.886,13.279 400.000,14.063 400.000 C 14.842 400.000,34.675 380.365,111.914 303.125 C 189.674 225.364,208.596 206.250,207.812 206.250 C 207.033 206.250,187.200 225.885,109.961 303.125 M117.773 303.125 C 40.013 380.886,21.092 400.000,21.876 400.000 C 22.654 400.000,42.487 380.365,119.727 303.125 C 197.487 225.364,216.408 206.250,215.624 206.250 C 214.846 206.250,195.013 225.885,117.773 303.125 M125.586 303.125 C 47.826 380.886,28.904 400.000,29.688 400.000 C 30.467 400.000,50.300 380.365,127.539 303.125 C 205.299 225.364,224.221 206.250,223.437 206.250 C 222.658 206.250,202.825 225.885,125.586 303.125 M133.398 303.125 C 55.480 381.044,36.716 400.000,37.504 400.000 C 38.286 400.000,57.953 380.527,135.344 303.125 C 212.514 225.943,232.008 206.250,231.239 206.250 C 230.474 206.250,210.056 226.467,133.398 303.125 M220.508 223.828 C 206.187 238.152,203.114 241.406,203.910 241.406 C 204.676 241.406,208.661 237.631,222.461 223.828 C 236.782 209.504,239.855 206.250,239.059 206.250 C 238.292 206.250,234.308 210.025,220.508 223.828 M276.017 207.380 C 275.352 208.074,274.985 208.834,275.065 209.353 C 275.181 210.106,275.402 209.986,277.134 208.223 C 278.960 206.364,279.015 206.250,278.086 206.250 C 277.508 206.250,276.651 206.718,276.017 207.380 M279.940 211.271 C 276.112 215.108,274.962 216.492,275.063 217.140 C 275.173 217.849,276.164 217.019,281.050 212.120 C 286.000 207.157,286.753 206.250,285.927 206.250 C 285.195 206.250,283.693 207.510,279.940 211.271 M283.849 215.175 C 276.879 222.149,274.959 224.285,275.063 224.949 C 275.172 225.647,276.932 224.059,284.958 216.024 C 293.033 207.940,294.552 206.250,293.744 206.250 C 292.991 206.250,290.726 208.292,283.849 215.175 M226.426 225.717 C 212.626 239.524,209.434 242.908,210.001 243.125 C 211.038 243.523,243.882 210.671,243.688 209.430 C 243.579 208.737,240.379 211.757,226.426 225.717 M383.701 224.700 C 371.036 237.378,367.676 240.945,367.969 241.406 C 368.524 242.278,400.130 210.662,399.938 209.429 C 399.829 208.736,396.829 211.558,383.701 224.700 M228.782 231.173 C 216.940 243.023,214.116 246.042,214.544 246.398 C 215.330 247.050,243.882 218.484,243.687 217.241 C 243.579 216.548,240.833 219.115,228.782 231.173 M384.242 231.963 C 371.937 244.276,368.708 247.713,368.813 248.384 C 368.921 249.076,371.823 246.354,384.508 233.662 C 396.813 221.349,400.042 217.912,399.937 217.241 C 399.829 216.549,396.927 219.271,384.242 231.963 M230.520 237.248 C 220.166 247.610,217.557 250.422,217.835 250.919 C 218.352 251.843,243.882 226.298,243.687 225.053 C 243.579 224.358,241.175 226.585,230.520 237.248 M384.242 239.776 C 371.937 252.088,368.708 255.525,368.813 256.197 C 368.921 256.889,371.823 254.167,384.508 241.474 C 396.813 229.162,400.042 225.725,399.937 225.053 C 399.829 224.361,396.927 227.083,384.242 239.776 M232.138 243.449 C 223.180 252.421,220.802 255.009,221.094 255.469 C 221.648 256.340,243.880 234.098,243.688 232.866 C 243.579 232.168,241.502 234.071,232.138 243.449 M384.242 247.588 C 371.937 259.901,368.708 263.338,368.813 264.009 C 368.921 264.701,371.823 261.979,384.508 249.287 C 396.813 236.974,400.042 233.537,399.937 232.866 C 399.829 232.174,396.927 234.896,384.242 247.588 M233.666 249.727 C 225.729 257.673,223.882 259.715,224.311 260.070 C 225.095 260.721,243.881 241.918,243.687 240.676 C 243.578 239.978,241.794 241.590,233.666 249.727 M384.242 255.401 C 371.937 267.713,368.708 271.150,368.813 271.822 C 368.921 272.514,371.823 269.792,384.508 257.099 C 396.813 244.787,400.042 241.350,399.937 240.678 C 399.829 239.986,396.927 242.708,384.242 255.401 M235.403 255.802 C 228.955 262.260,227.325 264.098,227.602 264.593 C 228.118 265.515,243.881 249.732,243.687 248.488 C 243.578 247.786,242.136 249.059,235.403 255.802 M384.242 263.213 C 371.937 275.526,368.708 278.963,368.813 279.634 C 368.921 280.326,371.823 277.604,384.508 264.912 C 396.813 252.599,400.042 249.162,399.937 248.491 C 399.829 247.799,396.927 250.521,384.242 263.213 M237.022 262.002 C 231.925 267.114,230.571 268.683,230.860 269.141 C 231.412 270.010,243.879 257.531,243.688 256.301 C 243.577 255.591,242.464 256.544,237.022 262.002 M384.242 271.026 C 371.937 283.338,368.708 286.775,368.813 287.447 C 368.921 288.139,371.823 285.417,384.508 272.724 C 396.813 260.412,400.042 256.975,399.937 256.303 C 399.829 255.611,396.927 258.333,384.242 271.026 M115.821 328.510 C 58.371 385.964,44.528 400.000,45.313 400.000 C 46.755 400.000,187.633 259.115,187.438 257.868 C 187.331 257.184,173.413 270.912,115.821 328.510 M238.714 268.117 C 234.980 271.864,233.934 273.135,234.142 273.675 C 234.539 274.711,243.881 265.353,243.687 264.112 C 243.575 263.392,242.798 264.018,238.714 268.117 M384.242 278.838 C 371.937 291.151,368.708 294.588,368.813 295.259 C 368.921 295.951,371.823 293.229,384.508 280.537 C 396.813 268.224,400.042 264.787,399.937 264.116 C 399.829 263.424,396.927 266.146,384.242 278.838 M120.312 331.836 C 65.553 386.597,52.341 400.000,53.125 400.000 C 53.901 400.000,67.921 386.180,121.741 332.360 C 182.692 271.410,190.239 263.672,188.727 263.672 C 188.589 263.672,157.802 294.346,120.312 331.836 M125.576 334.385 C 72.824 387.138,60.153 400.000,60.938 400.000 C 62.375 400.000,192.057 270.317,191.541 269.396 C 191.260 268.894,178.141 281.819,125.576 334.385 M240.248 274.395 C 237.625 277.036,237.042 277.823,237.425 278.206 C 238.131 278.912,243.877 273.145,243.687 271.921 C 243.573 271.184,243.099 271.525,240.248 274.395 M384.242 286.651 C 371.937 298.963,368.708 302.400,368.813 303.072 C 368.921 303.764,371.823 301.042,384.508 288.349 C 396.813 276.037,400.042 272.600,399.937 271.928 C 399.829 271.236,396.927 273.958,384.242 286.651 M130.664 337.109 C 80.123 387.651,67.966 400.000,68.750 400.000 C 69.526 400.000,82.491 387.235,132.093 337.634 C 188.274 281.453,195.314 274.219,193.805 274.219 C 193.667 274.219,165.253 302.520,130.664 337.109 M241.909 280.545 C 240.678 281.803,240.355 282.375,240.628 282.813 C 241.162 283.669,243.873 280.931,243.687 279.722 C 243.565 278.932,243.422 278.998,241.909 280.545 M384.242 294.463 C 371.937 306.776,368.708 310.213,368.813 310.884 C 368.921 311.576,371.823 308.854,384.508 296.162 C 396.813 283.849,400.042 280.412,399.937 279.741 C 399.829 279.049,396.927 281.771,384.242 294.463 M135.915 339.671 C 87.392 388.195,75.778 400.000,76.563 400.000 C 77.587 400.000,196.875 281.217,196.875 280.198 C 196.875 279.943,196.733 279.646,196.559 279.538 C 196.385 279.431,169.095 306.491,135.915 339.671 M141.016 342.383 C 94.693 388.706,83.591 400.000,84.375 400.000 C 85.150 400.000,97.061 388.290,142.444 342.907 C 193.856 291.497,200.390 284.766,198.883 284.766 C 198.745 284.766,172.705 310.693,141.016 342.383 M384.242 302.276 C 371.937 314.588,368.708 318.025,368.813 318.697 C 368.921 319.389,371.823 316.667,384.508 303.974 C 396.813 291.662,400.042 288.225,399.937 287.553 C 399.829 286.861,396.927 289.583,384.242 302.276 M146.266 344.945 C 101.962 389.250,91.403 400.000,92.189 400.000 C 93.212 400.000,201.953 291.764,201.953 290.745 C 201.953 290.490,201.811 290.193,201.637 290.085 C 201.463 289.977,176.546 314.664,146.266 344.945 M384.126 310.247 C 372.616 321.795,368.379 326.288,368.187 327.148 C 367.982 328.072,371.337 324.914,383.999 312.269 C 396.729 299.555,400.043 296.041,399.938 295.367 C 399.829 294.674,396.906 297.424,384.126 310.247 M151.367 347.656 C 109.264 389.761,99.215 400.000,100.000 400.000 C 100.775 400.000,111.631 389.344,152.796 348.181 C 199.437 301.540,205.465 295.313,203.962 295.313 C 203.823 295.313,180.156 318.867,151.367 347.656 M156.618 350.218 C 116.532 390.305,107.027 400.000,107.814 400.000 C 108.837 400.000,207.031 302.310,207.031 301.292 C 207.031 301.036,206.889 300.739,206.715 300.632 C 206.541 300.524,183.997 322.838,156.618 350.218 M382.744 319.426 C 370.151 332.047,365.520 336.933,365.055 338.086 C 364.546 339.352,367.809 336.268,382.248 321.839 C 396.383 307.715,400.043 303.854,399.938 303.180 C 399.829 302.487,396.637 305.504,382.744 319.426 M161.904 352.744 C 123.840 390.810,114.840 400.000,115.626 400.000 C 117.062 400.000,210.025 307.035,209.510 306.114 C 209.229 305.612,199.782 314.866,161.904 352.744 M378.832 331.145 C 364.269 345.730,357.187 353.103,355.657 355.273 C 353.818 357.883,357.297 354.562,376.763 335.121 C 395.307 316.600,400.043 311.669,399.938 310.993 C 399.830 310.302,395.868 314.085,378.832 331.145 M166.969 355.492 C 131.103 391.359,122.652 400.000,123.439 400.000 C 124.462 400.000,212.109 312.856,212.109 311.839 C 212.109 311.583,211.967 311.286,211.793 311.179 C 211.619 311.071,191.448 331.012,166.969 355.492 M172.256 358.017 C 138.410 391.864,130.464 400.000,131.251 400.000 C 132.687 400.000,215.103 317.581,214.588 316.661 C 214.307 316.159,205.914 324.358,172.256 358.017 M358.790 358.978 C 325.715 392.058,317.964 400.000,318.751 400.000 C 320.191 400.000,400.132 320.050,399.938 318.805 C 399.830 318.120,391.914 325.848,358.790 358.978 M177.344 360.742 C 145.678 392.409,138.276 400.000,139.064 400.000 C 140.233 400.000,217.188 323.331,217.188 322.167 C 217.188 320.911,216.748 321.336,177.344 360.742 M362.696 362.884 C 332.747 392.840,325.776 400.000,326.564 400.000 C 328.003 400.000,400.132 327.862,399.938 326.618 C 399.830 325.932,392.683 332.891,362.696 362.884 M182.608 363.291 C 152.980 392.919,146.088 400.000,146.877 400.000 C 148.312 400.000,220.181 328.128,219.666 327.208 C 219.385 326.705,212.047 333.850,182.608 363.291 M187.695 366.016 C 160.280 393.433,153.901 400.000,154.687 400.000 C 155.895 400.000,222.717 333.426,222.383 332.556 C 222.038 331.657,222.445 331.264,187.695 366.016 M366.602 366.790 C 339.778 393.621,333.588 400.000,334.377 400.000 C 335.815 400.000,400.132 335.674,399.938 334.430 C 399.830 333.743,393.453 339.934,366.602 366.790 M192.959 368.564 C 167.551 393.974,161.712 400.000,162.502 400.000 C 163.936 400.000,225.259 338.674,224.744 337.754 C 224.463 337.252,218.180 343.342,192.959 368.564 M370.509 370.697 C 346.809 394.402,341.399 400.000,342.189 400.000 C 343.627 400.000,400.132 343.486,399.938 342.242 C 399.830 341.555,394.222 346.977,370.509 370.697 M198.047 371.289 C 174.819 394.519,169.524 400.000,170.315 400.000 C 171.087 400.000,177.205 394.085,199.564 371.725 C 224.777 346.510,228.482 342.578,227.027 342.578 C 226.878 342.578,213.837 355.498,198.047 371.289 M203.516 373.633 C 182.162 394.988,177.336 400.000,178.127 400.000 C 178.899 400.000,184.549 394.554,205.033 374.069 C 228.142 350.958,231.602 347.266,230.152 347.266 C 230.003 347.266,218.016 359.131,203.516 373.633 M374.415 374.603 C 353.841 395.184,349.211 400.000,350.002 400.000 C 351.439 400.000,400.132 351.297,399.938 350.055 C 399.830 349.366,394.991 354.020,374.415 374.603 M209.180 375.781 C 189.545 395.418,185.148 400.000,185.940 400.000 C 186.710 400.000,191.932 394.984,210.697 376.217 C 231.877 355.035,235.112 351.563,233.667 351.563 C 233.518 351.563,222.499 362.461,209.180 375.781 M215.039 377.734 C 196.967 395.808,192.960 400.000,193.753 400.000 C 194.942 400.000,238.566 356.637,238.114 355.905 C 237.638 355.134,237.619 355.152,215.039 377.734 M378.322 378.509 C 360.872 395.965,357.022 400.000,357.815 400.000 C 359.250 400.000,400.132 359.108,399.938 357.867 C 399.830 357.177,395.761 361.063,378.322 378.509 M221.076 379.510 C 204.425 396.163,200.772 400.000,201.565 400.000 C 203.000 400.000,242.881 360.113,242.097 359.462 C 241.671 359.109,237.442 363.142,221.076 379.510 M227.148 381.250 C 211.889 396.512,208.583 400.000,209.378 400.000 C 210.566 400.000,247.159 363.667,246.708 362.936 C 246.232 362.167,246.173 362.223,227.148 381.250 M382.228 382.415 C 367.904 396.746,364.832 400.000,365.628 400.000 C 367.062 400.000,400.131 366.918,399.937 365.679 C 399.829 364.988,396.530 368.106,382.228 382.415 M233.363 382.848 C 219.382 396.831,216.395 400.000,217.191 400.000 C 218.074 400.000,251.563 367.213,251.563 366.349 C 251.563 364.918,248.650 367.558,233.363 382.848 M239.648 384.375 C 226.890 397.136,224.206 400.000,225.004 400.000 C 225.769 400.000,229.364 396.616,241.602 384.375 C 254.360 371.614,257.044 368.750,256.246 368.750 C 255.481 368.750,251.886 372.134,239.648 384.375 M247.461 384.375 C 234.703 397.136,232.019 400.000,232.816 400.000 C 233.581 400.000,237.176 396.616,249.414 384.375 C 262.172 371.614,264.856 368.750,264.059 368.750 C 263.294 368.750,259.699 372.134,247.461 384.375 M255.273 384.375 C 242.515 397.136,239.831 400.000,240.629 400.000 C 241.394 400.000,244.989 396.616,257.227 384.375 C 269.985 371.614,272.669 368.750,271.871 368.750 C 271.106 368.750,267.511 372.134,255.273 384.375 M263.086 384.375 C 250.328 397.136,247.644 400.000,248.441 400.000 C 249.206 400.000,252.801 396.616,265.039 384.375 C 277.797 371.614,280.481 368.750,279.684 368.750 C 278.919 368.750,275.324 372.134,263.086 384.375 M270.898 384.375 C 258.140 397.136,255.456 400.000,256.254 400.000 C 257.019 400.000,260.614 396.616,272.852 384.375 C 285.610 371.614,288.294 368.750,287.496 368.750 C 286.731 368.750,283.136 372.134,270.898 384.375 M278.711 384.375 C 265.953 397.136,263.269 400.000,264.066 400.000 C 264.831 400.000,268.426 396.616,280.664 384.375 C 293.422 371.614,296.106 368.750,295.309 368.750 C 294.544 368.750,290.949 372.134,278.711 384.375 M286.523 384.375 C 273.765 397.136,271.081 400.000,271.879 400.000 C 272.644 400.000,276.239 396.616,288.477 384.375 C 301.235 371.614,303.919 368.750,303.121 368.750 C 302.356 368.750,298.761 372.134,286.523 384.375 M294.336 384.375 C 281.578 397.136,278.894 400.000,279.691 400.000 C 280.456 400.000,284.051 396.616,296.289 384.375 C 309.047 371.614,311.731 368.750,310.934 368.750 C 310.169 368.750,306.574 372.134,294.336 384.375 M302.148 384.375 C 289.390 397.136,286.706 400.000,287.504 400.000 C 288.269 400.000,291.864 396.616,304.102 384.375 C 316.860 371.614,319.544 368.750,318.746 368.750 C 317.981 368.750,314.386 372.134,302.148 384.375 M309.961 384.375 C 297.203 397.136,294.519 400.000,295.316 400.000 C 296.081 400.000,299.676 396.616,311.914 384.375 C 324.672 371.614,327.356 368.750,326.559 368.750 C 325.794 368.750,322.199 372.134,309.961 384.375 M317.773 384.375 C 305.015 397.136,302.331 400.000,303.129 400.000 C 303.894 400.000,307.489 396.616,319.727 384.375 C 332.485 371.614,335.169 368.750,334.371 368.750 C 333.606 368.750,330.011 372.134,317.773 384.375 M325.586 384.375 C 312.828 397.136,310.144 400.000,310.941 400.000 C 311.706 400.000,315.301 396.616,327.539 384.375 C 340.297 371.614,342.981 368.750,342.184 368.750 C 341.419 368.750,337.824 372.134,325.586 384.375 M386.135 386.321 C 374.935 397.528,372.642 400.000,373.442 400.000 C 374.872 400.000,400.131 374.728,399.937 373.490 C 399.829 372.797,397.299 375.148,386.135 386.321 M390.042 390.226 C 381.967 398.310,380.448 400.000,381.256 400.000 C 382.680 400.000,400.130 382.534,399.937 381.301 C 399.828 380.603,398.068 382.191,390.042 390.226 M393.950 394.130 C 389.000 399.093,388.247 400.000,389.073 400.000 C 390.481 400.000,400.127 390.330,399.937 389.110 C 399.827 388.401,398.836 389.231,393.950 394.130 M397.866 398.027 C 396.040 399.886,395.985 400.000,396.914 400.000 C 398.197 400.000,400.111 398.034,399.935 396.897 C 399.819 396.144,399.598 396.264,397.866 398.027 " stroke="none" fill="#555c6b" fill-rule="evenodd"></path><path id="path3" d="M119.223 81.928 C 119.320 82.307,122.110 93.555,125.423 106.924 L 131.445 131.231 167.266 131.241 C 208.535 131.251,207.084 131.364,210.982 127.843 C 213.750 125.343,214.163 124.174,218.722 105.979 C 223.916 85.248,223.929 85.036,220.186 82.262 L 219.084 81.445 169.065 81.342 C 121.432 81.243,119.055 81.271,119.223 81.928 M257.520 169.019 C 257.896 169.118,258.511 169.118,258.887 169.019 C 259.263 168.921,258.955 168.841,258.203 168.841 C 257.451 168.841,257.144 168.921,257.520 169.019 M243.841 183.203 C 243.841 183.955,243.921 184.263,244.019 183.887 C 244.118 183.511,244.118 182.896,244.019 182.520 C 243.921 182.144,243.841 182.451,243.841 183.203 M274.700 183.203 C 274.700 183.955,274.780 184.263,274.879 183.887 C 274.977 183.511,274.977 182.896,274.879 182.520 C 274.780 182.144,274.700 182.451,274.700 183.203 M200.469 287.687 C 200.937 288.649,201.386 289.369,201.468 289.287 C 201.645 289.110,200.066 285.938,199.802 285.938 C 199.702 285.938,200.002 286.725,200.469 287.687 M220.345 328.320 C 220.345 328.535,220.682 329.326,221.094 330.078 C 221.505 330.830,221.842 331.270,221.842 331.055 C 221.842 330.840,221.505 330.049,221.094 329.297 C 220.682 328.545,220.345 328.105,220.345 328.320 " stroke="none" fill="#fcce95" fill-rule="evenodd"></path><path id="path4" d="M257.500 169.149 C 249.821 170.268,245.273 174.923,244.130 182.833 C 243.920 184.284,243.762 206.825,243.758 236.035 C 243.754 263.911,243.618 286.718,243.457 286.717 C 243.296 286.716,242.470 285.657,241.623 284.364 C 240.775 283.072,239.764 281.727,239.377 281.376 C 238.989 281.025,238.672 280.524,238.672 280.262 C 238.672 280.000,238.057 279.114,237.305 278.293 C 236.553 277.472,235.938 276.610,235.938 276.377 C 235.938 276.144,235.595 275.707,235.177 275.406 C 234.759 275.104,234.496 274.730,234.593 274.573 C 234.690 274.416,234.241 273.790,233.595 273.180 C 232.950 272.571,232.422 271.948,232.422 271.796 C 232.422 271.376,230.487 268.613,229.957 268.276 C 229.701 268.114,229.651 267.978,229.845 267.975 C 230.039 267.971,229.862 267.661,229.452 267.285 C 229.041 266.909,228.466 266.134,228.173 265.563 C 227.880 264.992,227.134 263.970,226.516 263.293 C 225.897 262.615,225.391 261.896,225.391 261.695 C 225.391 261.493,225.186 261.328,224.935 261.328 C 224.684 261.328,224.590 261.218,224.725 261.083 C 224.860 260.948,224.385 260.113,223.669 259.227 C 222.954 258.342,221.925 256.914,221.382 256.055 C 220.840 255.195,220.037 254.115,219.597 253.655 C 219.157 253.194,218.904 252.711,219.034 252.581 C 219.164 252.450,219.106 252.344,218.904 252.344 C 218.702 252.344,218.206 251.729,217.801 250.977 C 217.396 250.225,216.920 249.609,216.743 249.609 C 216.567 249.609,216.079 248.936,215.659 248.113 C 215.239 247.291,213.961 245.917,212.819 245.061 C 210.108 243.030,209.925 242.928,208.255 242.515 C 207.474 242.323,206.484 242.051,206.055 241.911 C 205.034 241.580,201.088 241.462,200.586 241.749 C 200.371 241.871,200.020 241.980,199.805 241.991 C 198.614 242.049,194.930 243.446,195.126 243.765 C 195.254 243.972,195.016 244.141,194.596 244.141 C 193.801 244.141,189.463 248.514,189.440 249.339 C 189.433 249.595,189.096 250.504,188.691 251.360 C 188.287 252.215,188.040 253.050,188.142 253.215 C 188.244 253.380,188.161 253.516,187.958 253.516 C 187.651 253.516,187.631 256.434,187.902 261.426 C 187.922 261.802,188.075 262.109,188.240 262.109 C 188.406 262.109,188.546 262.329,188.552 262.598 C 188.564 263.181,191.761 270.032,192.151 270.313 C 192.485 270.552,193.874 273.440,193.992 274.141 C 194.039 274.421,194.392 275.124,194.777 275.704 C 195.162 276.284,195.509 276.955,195.548 277.197 C 195.638 277.751,196.957 280.599,197.245 280.859 C 197.364 280.967,197.784 281.758,198.180 282.617 C 198.575 283.477,199.141 284.619,199.436 285.156 C 200.320 286.762,201.408 289.065,202.942 292.578 C 203.740 294.404,204.726 296.370,205.134 296.947 C 205.542 297.523,206.140 298.745,206.464 299.662 C 206.787 300.578,207.316 301.621,207.640 301.978 C 207.963 302.335,208.306 303.034,208.401 303.531 C 208.497 304.028,208.799 304.577,209.073 304.750 C 209.346 304.924,209.427 305.069,209.251 305.072 C 209.075 305.075,209.460 306.089,210.105 307.324 C 210.751 308.560,211.677 310.449,212.162 311.523 C 212.648 312.598,213.274 313.709,213.554 313.993 C 213.834 314.277,214.084 314.672,214.111 314.872 C 214.138 315.071,214.182 315.379,214.209 315.556 C 214.273 315.975,217.375 322.370,218.560 324.525 C 219.066 325.446,219.466 326.237,219.449 326.283 C 219.335 326.582,220.031 328.125,220.279 328.125 C 220.447 328.125,220.875 328.828,221.230 329.688 C 221.585 330.547,222.165 331.953,222.520 332.813 C 222.875 333.672,223.344 334.375,223.562 334.375 C 223.780 334.375,223.847 334.486,223.712 334.622 C 223.576 334.757,223.672 335.241,223.926 335.696 C 224.179 336.151,224.401 336.611,224.419 336.719 C 224.567 337.591,225.119 338.672,225.417 338.672 C 225.617 338.672,225.781 339.011,225.781 339.425 C 225.781 339.840,226.045 340.442,226.367 340.765 C 226.689 341.087,226.953 341.594,226.953 341.891 C 226.953 342.188,227.305 342.808,227.734 343.269 C 228.164 343.731,228.516 344.291,228.516 344.515 C 228.516 344.739,228.672 344.922,228.864 344.922 C 229.055 344.922,229.313 345.317,229.436 345.801 C 229.751 347.037,240.234 358.505,240.234 357.613 C 240.234 357.482,240.718 357.876,241.309 358.491 C 241.899 359.106,243.086 360.122,243.945 360.749 C 244.805 361.376,245.945 362.290,246.480 362.781 C 247.015 363.271,247.674 363.672,247.945 363.672 C 248.216 363.672,248.438 363.877,248.438 364.128 C 248.438 364.378,248.544 364.477,248.674 364.346 C 248.805 364.216,249.269 364.443,249.706 364.850 C 250.144 365.258,251.268 365.951,252.204 366.391 C 253.140 366.831,253.906 367.366,253.906 367.580 C 253.906 367.794,254.258 367.969,254.688 367.969 C 255.117 367.969,255.469 368.145,255.469 368.359 C 255.469 369.273,343.142 368.852,344.704 367.931 C 345.468 367.480,346.014 366.984,345.919 366.830 C 345.823 366.675,346.106 366.297,346.548 365.989 C 346.989 365.681,347.946 364.657,348.675 363.713 C 349.404 362.769,350.000 362.129,350.000 362.291 C 350.000 362.785,352.987 359.017,356.066 354.640 C 357.671 352.357,358.984 350.285,358.984 350.033 C 358.984 349.782,359.327 349.209,359.746 348.759 C 360.165 348.309,360.615 347.452,360.747 346.855 C 360.878 346.257,361.238 345.671,361.547 345.553 C 361.856 345.434,362.109 345.001,362.109 344.591 C 362.109 344.181,362.373 343.627,362.695 343.359 C 363.018 343.092,363.281 342.513,363.281 342.073 C 363.281 341.633,363.518 340.995,363.807 340.656 C 364.530 339.807,365.637 336.861,365.344 336.568 C 365.212 336.436,365.328 336.328,365.602 336.328 C 365.875 336.328,366.005 336.082,365.889 335.780 C 365.773 335.479,365.799 335.113,365.945 334.967 C 366.091 334.820,366.226 334.583,366.245 334.440 C 366.263 334.297,366.390 333.916,366.526 333.594 C 366.663 333.271,366.860 332.568,366.964 332.031 C 367.069 331.494,367.408 330.088,367.718 328.906 C 368.546 325.753,368.519 327.247,368.522 283.789 C 368.524 243.070,368.490 241.586,367.529 240.977 C 367.234 240.790,367.141 240.634,367.322 240.631 C 367.981 240.619,365.469 236.873,363.728 235.272 C 362.746 234.369,361.874 233.699,361.789 233.784 C 361.705 233.868,361.270 233.596,360.822 233.180 C 360.375 232.763,359.778 232.400,359.497 232.373 C 358.816 232.308,358.543 232.225,357.617 231.802 C 351.673 229.087,338.672 235.387,338.672 240.984 C 338.672 241.431,338.534 241.797,338.364 241.797 C 338.195 241.797,338.029 242.168,337.995 242.622 C 337.961 243.076,337.826 243.555,337.695 243.685 C 337.355 244.025,336.756 242.936,336.973 242.371 C 337.073 242.111,336.868 241.611,336.518 241.261 C 336.168 240.911,335.999 240.625,336.142 240.625 C 336.285 240.625,335.921 239.790,335.333 238.770 C 334.332 237.034,330.880 233.443,330.539 233.784 C 330.455 233.868,330.020 233.596,329.572 233.180 C 329.125 232.763,328.528 232.400,328.247 232.373 C 327.566 232.308,327.293 232.225,326.367 231.802 C 320.423 229.087,307.422 235.387,307.422 240.984 C 307.422 241.431,307.284 241.797,307.114 241.797 C 306.945 241.797,306.779 242.168,306.745 242.622 C 306.711 243.076,306.576 243.555,306.445 243.685 C 306.105 244.025,305.506 242.936,305.723 242.371 C 305.823 242.111,305.618 241.611,305.268 241.261 C 304.918 240.911,304.749 240.625,304.892 240.625 C 305.035 240.625,304.671 239.790,304.083 238.770 C 303.082 237.034,299.630 233.443,299.289 233.784 C 299.205 233.868,298.770 233.596,298.322 233.180 C 297.875 232.763,297.278 232.400,296.997 232.373 C 296.316 232.308,296.043 232.225,295.117 231.802 C 289.173 229.087,276.172 235.387,276.172 240.984 C 276.172 241.431,275.986 241.797,275.758 241.797 C 275.531 241.797,275.421 241.929,275.514 242.090 C 275.607 242.251,275.542 242.734,275.369 243.164 C 275.196 243.594,275.037 230.762,275.015 214.648 C 274.972 182.140,274.895 180.838,272.809 176.975 C 270.504 172.709,263.964 168.482,260.156 168.799 C 259.834 168.826,258.639 168.983,257.500 169.149 " stroke="none" fill="#f4cc9c" fill-rule="evenodd"></path></g></svg>